M48
METRIC,LZ,000.000
;FILE_FORMAT=3:3
;TYPE=PLATED
;Layer: PTH_Through
;EasyEDA v6.5.37, 2023-11-05 12:22:53
;b38ca7787a6d49d182703bcf24ee71ae,61ca570dd1bc49e89b508e185065188e,10
;Gerber Generator version 0.2
;Holesize 1 = 0.901 mm
T01C0.901
;Holesize 2 = 1.000 mm
T02C1.000
%
G05
G90
T01
X051943Y083312
X053213Y085852
X054483Y083312
X055753Y085852
X057023Y083312
X058293Y085852
X059563Y083312
X060833Y085852
X062103Y083312
X063373Y085852
X064643Y083312
X065913Y085852
X067183Y083312
X068453Y085852
X018125Y104394
X020665Y104394
X023205Y104394
X025745Y104394
X028285Y104394
X030825Y104394
X033363Y104394
X035903Y104394
X038443Y104394
X040983Y104394
X043523Y104394
X046063Y104394
X030825Y082677
X028285Y082677
X025745Y082677
X023205Y082677
X020665Y082677
X018125Y082677
X046063Y082677
X043523Y082677
X040983Y082677
X038443Y082677
X035903Y082677
X033363Y082677
X051745Y101770
X053015Y099230
X054285Y101770
X055555Y099230
X056825Y101770
X058095Y099230
X059365Y101770
X060635Y099230
X061905Y101770
X063175Y099230
X064445Y101770
X065715Y099230
X066985Y101770
X068255Y099230
T02
X043524Y085979G85X043524Y085979
X040984Y085979G85X040984Y085979
X038444Y085979G85X038444Y085979
X035904Y085979G85X035904Y085979
X033364Y085979G85X033364Y085979
X030824Y085979G85X030824Y085979
X028284Y085979G85X028284Y085979
X025744Y085979G85X025744Y085979
X023204Y085979G85X023204Y085979
X020664Y085979G85X020664Y085979
X018124Y085979G85X018124Y085979
X018124Y101219G85X018124Y101219
X020664Y101219G85X020664Y101219
X023204Y101219G85X023204Y101219
X025744Y101219G85X025744Y101219
X028284Y101219G85X028284Y101219
X030824Y101219G85X030824Y101219
X033364Y101219G85X033364Y101219
X035904Y101219G85X035904Y101219
X038444Y101219G85X038444Y101219
X040984Y101219G85X040984Y101219
X043524Y101219G85X043524Y101219
X046064Y085979G85X046064Y085979
X046064Y101219G85X046064Y101219
M30
