G04 Layer: TopLayer*
G04 EasyEDA v6.5.37, 2023-11-05 12:22:53*
G04 b38ca7787a6d49d182703bcf24ee71ae,61ca570dd1bc49e89b508e185065188e,10*
G04 Gerber Generator version 0.2*
G04 Scale: 100 percent, Rotated: No, Reflected: No *
G04 Dimensions in millimeters *
G04 leading zeros omitted , absolute positions ,4 integer and 5 decimal *
%FSLAX45Y45*%
%MOMM*%

%AMMACRO1*21,1,$1,$2,0,0,$3*%
%ADD10C,0.2540*%
%ADD11O,1.6764X2.7999944*%
%ADD12C,1.5000*%
%ADD13R,1.5000X1.5000*%
%ADD14MACRO1,1.5X1.5X0.0000*%

%LPD*%
D10*
X6083300Y8585200D02*
G01*
X5896229Y8772270D01*
X2748762Y8772270D01*
X2574391Y8597900D01*
X2066543Y8267700D02*
G01*
X2179040Y8155203D01*
X5780303Y8155203D01*
X5956300Y8331200D01*
X1812391Y8597900D02*
G01*
X2033752Y8819261D01*
X5996355Y8819261D01*
X6210300Y8605316D01*
X6210300Y8331200D01*
X5829300Y8585200D02*
G01*
X5694273Y8450173D01*
X4889118Y8450173D01*
X4816906Y8377961D01*
X2938805Y8377961D01*
X2828543Y8267700D01*
X4606290Y10439400D02*
G01*
X6436106Y10439400D01*
X6698488Y10177018D01*
X4352290Y10439400D02*
G01*
X4606290Y10439400D01*
X4606391Y8597900D02*
G01*
X4352416Y8597900D01*
X4606391Y10121900D02*
G01*
X4352442Y10121900D01*
X4352290Y8267700D02*
G01*
X4606290Y8267700D01*
X4098442Y10121900D02*
G01*
X3844442Y10121900D01*
X6825488Y9923018D02*
G01*
X6722567Y9923018D01*
X6722567Y9923018D02*
G01*
X6548348Y10097236D01*
X6548348Y10227970D01*
X6463182Y10313136D01*
X4224553Y10313136D01*
X4098290Y10439400D01*
X4098290Y10439400D02*
G01*
X3844290Y10439400D01*
X5428488Y10177018D02*
G01*
X5348376Y10177018D01*
X5114137Y9942779D01*
X1991512Y9942779D01*
X1812391Y10121900D01*
X5575300Y8585200D02*
G01*
X5468874Y8691626D01*
X5014061Y8691626D01*
X4741189Y8418753D01*
X3769537Y8418753D01*
X3590391Y8597900D01*
D11*
G01*
X4352416Y8597900D03*
G01*
X4098416Y8597900D03*
G01*
X3844391Y8597900D03*
G01*
X3590391Y8597900D03*
G01*
X3336416Y8597900D03*
G01*
X3082391Y8597900D03*
G01*
X2828391Y8597900D03*
G01*
X2574391Y8597900D03*
G01*
X2320391Y8597900D03*
G01*
X2066391Y8597900D03*
G01*
X1812391Y8597900D03*
G01*
X1812391Y10121900D03*
G01*
X2066416Y10121900D03*
G01*
X2320416Y10121900D03*
G01*
X2574442Y10121900D03*
G01*
X2828442Y10121900D03*
G01*
X3082442Y10121900D03*
G01*
X3336442Y10121900D03*
G01*
X3590442Y10121900D03*
G01*
X3844442Y10121900D03*
G01*
X4098442Y10121900D03*
G01*
X4352442Y10121900D03*
G01*
X4606391Y8597900D03*
G01*
X4606391Y10121900D03*
D12*
G01*
X5194300Y8331200D03*
G01*
X5321300Y8585200D03*
G01*
X5448300Y8331200D03*
G01*
X5575300Y8585200D03*
G01*
X5702300Y8331200D03*
G01*
X5829300Y8585200D03*
G01*
X5956300Y8331200D03*
G01*
X6083300Y8585200D03*
G01*
X6210300Y8331200D03*
G01*
X6337300Y8585200D03*
G01*
X6464300Y8331200D03*
G01*
X6591300Y8585200D03*
G01*
X6718300Y8331200D03*
D13*
G01*
X6845300Y8585200D03*
D12*
G01*
X1812544Y10439400D03*
G01*
X2066543Y10439400D03*
G01*
X2320543Y10439400D03*
G01*
X2574543Y10439400D03*
G01*
X2828543Y10439400D03*
G01*
X3082543Y10439400D03*
G01*
X3336290Y10439400D03*
G01*
X3590290Y10439400D03*
G01*
X3844290Y10439400D03*
G01*
X4098290Y10439400D03*
G01*
X4352290Y10439400D03*
G01*
X4606290Y10439400D03*
G01*
X3082543Y8267700D03*
G01*
X2828543Y8267700D03*
G01*
X2574543Y8267700D03*
G01*
X2320543Y8267700D03*
G01*
X2066543Y8267700D03*
G01*
X1812544Y8267700D03*
G01*
X4606290Y8267700D03*
G01*
X4352290Y8267700D03*
G01*
X4098290Y8267700D03*
G01*
X3844290Y8267700D03*
G01*
X3590290Y8267700D03*
G01*
X3336290Y8267700D03*
G01*
X5174488Y10177018D03*
G01*
X5301488Y9923018D03*
G01*
X5428488Y10177018D03*
G01*
X5555488Y9923018D03*
G01*
X5682488Y10177018D03*
G01*
X5809488Y9923018D03*
G01*
X5936488Y10177018D03*
G01*
X6063488Y9923018D03*
G01*
X6190488Y10177018D03*
G01*
X6317488Y9923018D03*
G01*
X6444488Y10177018D03*
G01*
X6571488Y9923018D03*
G01*
X6698488Y10177018D03*
D14*
G01*
X6825486Y9923016D03*
M02*
