G04 Layer: TopSolderMaskLayer*
G04 EasyEDA v6.5.37, 2023-11-05 12:22:53*
G04 b38ca7787a6d49d182703bcf24ee71ae,61ca570dd1bc49e89b508e185065188e,10*
G04 Gerber Generator version 0.2*
G04 Scale: 100 percent, Rotated: No, Reflected: No *
G04 Dimensions in millimeters *
G04 leading zeros omitted , absolute positions ,4 integer and 5 decimal *
%FSLAX45Y45*%
%MOMM*%

%AMMACRO1*1,1,$1,$2,$3*1,1,$1,$4,$5*1,1,$1,0-$2,0-$3*1,1,$1,0-$4,0-$5*20,1,$1,$2,$3,$4,$5,0*20,1,$1,$4,$5,0-$2,0-$3,0*20,1,$1,0-$2,0-$3,0-$4,0-$5,0*20,1,$1,0-$4,0-$5,$2,$3,0*4,1,4,$2,$3,$4,$5,0-$2,0-$3,0-$4,0-$5,$2,$3,0*%
%ADD10O,1.8796X3.0031944*%
%ADD11C,1.6016*%
%ADD12MACRO1,0.1016X0.75X-0.75X-0.75X-0.75*%
%ADD13MACRO1,0.1016X0.75X0.75X-0.75X0.75*%

%LPD*%
D10*
G01*
X4352416Y8597900D03*
G01*
X4098416Y8597900D03*
G01*
X3844391Y8597900D03*
G01*
X3590391Y8597900D03*
G01*
X3336416Y8597900D03*
G01*
X3082391Y8597900D03*
G01*
X2828391Y8597900D03*
G01*
X2574391Y8597900D03*
G01*
X2320391Y8597900D03*
G01*
X2066391Y8597900D03*
G01*
X1812391Y8597900D03*
G01*
X1812391Y10121900D03*
G01*
X2066416Y10121900D03*
G01*
X2320416Y10121900D03*
G01*
X2574442Y10121900D03*
G01*
X2828442Y10121900D03*
G01*
X3082442Y10121900D03*
G01*
X3336442Y10121900D03*
G01*
X3590442Y10121900D03*
G01*
X3844442Y10121900D03*
G01*
X4098442Y10121900D03*
G01*
X4352442Y10121900D03*
G01*
X4606391Y8597900D03*
G01*
X4606391Y10121900D03*
D11*
G01*
X5194300Y8331200D03*
G01*
X5321300Y8585200D03*
G01*
X5448300Y8331200D03*
G01*
X5575300Y8585200D03*
G01*
X5702300Y8331200D03*
G01*
X5829300Y8585200D03*
G01*
X5956300Y8331200D03*
G01*
X6083300Y8585200D03*
G01*
X6210300Y8331200D03*
G01*
X6337300Y8585200D03*
G01*
X6464300Y8331200D03*
G01*
X6591300Y8585200D03*
G01*
X6718300Y8331200D03*
D12*
G01*
X6845298Y8585201D03*
D11*
G01*
X1812544Y10439400D03*
G01*
X2066543Y10439400D03*
G01*
X2320543Y10439400D03*
G01*
X2574543Y10439400D03*
G01*
X2828543Y10439400D03*
G01*
X3082543Y10439400D03*
G01*
X3336290Y10439400D03*
G01*
X3590290Y10439400D03*
G01*
X3844290Y10439400D03*
G01*
X4098290Y10439400D03*
G01*
X4352290Y10439400D03*
G01*
X4606290Y10439400D03*
G01*
X3082543Y8267700D03*
G01*
X2828543Y8267700D03*
G01*
X2574543Y8267700D03*
G01*
X2320543Y8267700D03*
G01*
X2066543Y8267700D03*
G01*
X1812544Y8267700D03*
G01*
X4606290Y8267700D03*
G01*
X4352290Y8267700D03*
G01*
X4098290Y8267700D03*
G01*
X3844290Y8267700D03*
G01*
X3590290Y8267700D03*
G01*
X3336290Y8267700D03*
G01*
X5174488Y10177018D03*
G01*
X5301488Y9923018D03*
G01*
X5428488Y10177018D03*
G01*
X5555488Y9923018D03*
G01*
X5682488Y10177018D03*
G01*
X5809488Y9923018D03*
G01*
X5936488Y10177018D03*
G01*
X6063488Y9923018D03*
G01*
X6190488Y10177018D03*
G01*
X6317488Y9923018D03*
G01*
X6444488Y10177018D03*
G01*
X6571488Y9923018D03*
G01*
X6698488Y10177018D03*
D13*
G01*
X6825486Y9923016D03*
M02*
