G04 Layer: BottomSilkscreenLayer*
G04 EasyEDA v6.5.37, 2023-11-05 12:22:53*
G04 b38ca7787a6d49d182703bcf24ee71ae,61ca570dd1bc49e89b508e185065188e,10*
G04 Gerber Generator version 0.2*
G04 Scale: 100 percent, Rotated: No, Reflected: No *
G04 Dimensions in millimeters *
G04 leading zeros omitted , absolute positions ,4 integer and 5 decimal *
%FSLAX45Y45*%
%MOMM*%

%ADD10C,0.1524*%
%ADD11C,0.2540*%

%LPD*%
D10*
X6261100Y10453138D02*
G01*
X6261100Y10344035D01*
X6261100Y10453138D02*
G01*
X6214341Y10453138D01*
X6198755Y10447944D01*
X6193558Y10442747D01*
X6188364Y10432356D01*
X6188364Y10421965D01*
X6193558Y10411574D01*
X6198755Y10406379D01*
X6214341Y10401185D01*
X6261100Y10401185D02*
G01*
X6214341Y10401185D01*
X6198755Y10395988D01*
X6193558Y10390794D01*
X6188364Y10380403D01*
X6188364Y10364815D01*
X6193558Y10354424D01*
X6198755Y10349229D01*
X6214341Y10344035D01*
X6261100Y10344035D01*
X6154074Y10453138D02*
G01*
X6154074Y10344035D01*
X6154074Y10453138D02*
G01*
X6086533Y10453138D01*
X6154074Y10401185D02*
G01*
X6112509Y10401185D01*
X6154074Y10344035D02*
G01*
X6086533Y10344035D01*
X6052243Y10453138D02*
G01*
X6052243Y10344035D01*
X6052243Y10453138D02*
G01*
X6015875Y10453138D01*
X6000287Y10447944D01*
X5989896Y10437553D01*
X5984702Y10427162D01*
X5979505Y10411574D01*
X5979505Y10385597D01*
X5984702Y10370012D01*
X5989896Y10359621D01*
X6000287Y10349229D01*
X6015875Y10344035D01*
X6052243Y10344035D01*
X5945215Y10453138D02*
G01*
X5945215Y10344035D01*
X5910925Y10453138D02*
G01*
X5910925Y10344035D01*
X5910925Y10453138D02*
G01*
X5843384Y10453138D01*
X5910925Y10401185D02*
G01*
X5869363Y10401185D01*
X5910925Y10344035D02*
G01*
X5843384Y10344035D01*
X5809094Y10453138D02*
G01*
X5809094Y10344035D01*
X5809094Y10453138D02*
G01*
X5736358Y10344035D01*
X5736358Y10453138D02*
G01*
X5736358Y10344035D01*
D11*
X6952488Y10037307D02*
G01*
X7003288Y10037307D01*
X7003288Y9944536D02*
G01*
X6952488Y9944536D01*
X6952488Y10126218D01*
X7003288Y10126218D01*
X7003288Y9796018D02*
G01*
X4996688Y9796018D01*
X4996688Y9796018D02*
G01*
X4996688Y10304018D01*
X7003288Y10304018D01*
X7003288Y9796018D01*
M02*
